# xmcd
#
# Track frame offsets:
#	150
#	28029
#	93581
#	131028
#	147763
#	159006
#	178104
#	212648
#	234428
#	274530
#	291357
#
# Disc length: 4237 seconds
#
# Revision: 1
# Processed by: cddbd v1.5.2PL0 Copyright (c) Steve Scherf et al.
# Submitted via: audiograbber 1.83.01
#
DISCID=99108b0b
DTITLE=Grateful Dead - 78-04-18 Pittsburgh Civic Arena, Pittsburgh PA
DYEAR=1900
DGENRE=
TTITLE0=New Minglewood Blues
TTITLE1=Sugaree
TTITLE2=Looks Like Rain
TTITLE3=Dire Wolf
TTITLE4=Tuning
TTITLE5=Beat It On Down The Line
TTITLE6=Loser
TTITLE7=El Paso
TTITLE8=Tennessee Jed
TTITLE9=Lazy Lightning
TTITLE10=Supplication
EXTD=
EXTT0=
EXTT1=
EXTT2=
EXTT3=
EXTT4=
EXTT5=
EXTT6=
EXTT7=
EXTT8=
EXTT9=
EXTT10=
PLAYORDER=
